<?xml version="1.0" standalone="no"?>
<!DOCTYPE svg PUBLIC "-//W3C//DTD SVG 20010904//EN"
 "http://www.w3.org/TR/2001/REC-SVG-20010904/DTD/svg10.dtd">
<svg version="1.0" xmlns="http://www.w3.org/2000/svg"
 width="256.000000pt" height="256.000000pt" viewBox="0 0 256.000000 256.000000"
 preserveAspectRatio="xMidYMid meet">

<g transform="translate(0.000000,256.000000) scale(0.100000,-0.100000)"
fill="#000000" stroke="none">
<path d="M1083 1735 c-90 -20 -179 -70 -248 -140 -161 -162 -199 -419 -93
-635 37 -77 139 -182 214 -222 184 -98 423 -66 551 75 37 41 41 41 73 -14 17
-29 116 -90 171 -104 63 -17 127 -19 163 -5 l26 10 0 135 0 135 -40 0 c-30 0
-47 7 -65 25 l-25 24 0 356 0 355 -165 0 -165 0 0 -45 0 -45 -41 30 c-92 66
-236 93 -356 65z m272 -304 c50 -23 109 -86 126 -137 63 -189 -105 -365 -296
-310 -200 59 -233 332 -52 436 43 25 63 30 117 30 41 0 80 -7 105 -19z"/>
<path d="M210 550 l0 -100 398 2 397 3 0 95 0 95 -397 3 -398 2 0 -100z"/>
</g>
</svg>
